<svg width="125" height="40" viewBox="0 0 125 40" fill="none"
  xmlns="http://www.w3.org/2000/svg">
  <path d="M18.9298 20.0451C18.9166 17.284 19.3596 14.5397 20.2408 11.9237C20.4187 11.5208 20.5044 11.0831 20.4917 10.6427C20.479 10.2023 20.3681 9.77033 20.1673 9.37844C19.9664 8.98656 19.6806 8.6447 19.3308 8.3779C18.9811 8.11111 18.5762 7.92615 18.1459 7.83658C17.7155 7.74701 17.2707 7.75509 16.8439 7.86024C16.4171 7.96538 16.0191 8.16493 15.6792 8.44426C15.3394 8.72358 15.0661 9.0756 14.8795 9.47453C14.693 9.87345 14.5978 10.3092 14.601 10.7497C14.6 11.1545 14.6834 11.555 14.8459 11.9255C15.7175 14.5121 16.1603 17.2245 16.1569 19.9547C16.1691 22.7157 15.7262 25.4598 14.8459 28.0761C14.6524 28.5248 14.573 29.0146 14.6148 29.5016C14.6567 29.9886 14.8184 30.4575 15.0856 30.8664C15.3528 31.2753 15.717 31.6113 16.1456 31.8443C16.5743 32.0773 17.0539 32.2 17.5415 32.2015C18.0292 32.2004 18.5091 32.0779 18.938 31.845C19.3668 31.6121 19.7313 31.2761 19.9987 30.8672C20.2661 30.4583 20.428 29.9892 20.47 29.502C20.5119 29.0149 20.4325 28.5249 20.2389 28.0761C19.3684 25.4886 18.9262 22.7758 18.9298 20.0451Z" fill="url(#paint0_linear_212_424)"/>
  <path d="M8.87476 17.0513C8.2921 17.0513 7.72252 17.2245 7.23806 17.549C6.75359 17.8735 6.376 18.3347 6.15302 18.8744C5.93005 19.414 5.87171 20.0078 5.98538 20.5807C6.09905 21.1536 6.37963 21.6798 6.79163 22.0928C7.20364 22.5058 7.72856 22.7871 8.30003 22.901C8.87149 23.015 9.46383 22.9565 10.0021 22.733C10.5404 22.5095 11.0005 22.1309 11.3243 21.6453C11.648 21.1596 11.8207 20.5886 11.8207 20.0045C11.8207 19.2213 11.5104 18.4701 10.9579 17.9163C10.4054 17.3624 9.65608 17.0513 8.87476 17.0513Z" fill="url(#paint1_linear_212_424)"/>
  <path d="M34.8252 7.80029C34.3375 7.80139 33.8576 7.92388 33.4287 8.15675C32.9998 8.38963 32.6354 8.72561 32.368 9.13455C32.1006 9.54348 31.9387 10.0126 31.8967 10.4997C31.8548 10.9869 31.9342 11.4768 32.1278 11.9256C33.875 17.1661 33.875 22.8339 32.1278 28.0744C31.9492 28.4772 31.8628 28.915 31.8749 29.3556C31.887 29.7962 31.9974 30.2285 32.1979 30.6208C32.3985 31.0131 32.6841 31.3554 33.0337 31.6227C33.3834 31.8899 33.7884 32.0753 34.2188 32.1652C34.6493 32.2551 35.0944 32.2473 35.5215 32.1423C35.9485 32.0373 36.3467 31.8378 36.6868 31.5585C37.027 31.2791 37.3004 30.9269 37.4871 30.5278C37.6738 30.1287 37.7689 29.6928 37.7657 29.252C37.7665 28.8467 37.6831 28.4456 37.5208 28.0744C35.7728 22.8341 35.7728 17.1659 37.5208 11.9256C37.7143 11.477 37.7937 10.9872 37.7519 10.5002C37.71 10.0132 37.5483 9.5442 37.2811 9.13531C37.0139 8.72643 36.6497 8.39041 36.2211 8.15741C35.7924 7.9244 35.3128 7.8017 34.8252 7.80029Z" fill="url(#paint2_linear_212_424)"/>
  <path d="M28.8559 24.1797L28.8393 24.1576C28.6975 23.8383 28.4998 23.547 28.2557 23.2975C27.5431 22.2546 26.8361 21.1397 26.8398 19.975C26.8434 18.8104 27.5431 17.7416 28.2446 16.7154C28.4945 16.4619 28.6972 16.1656 28.843 15.8405L28.8541 15.822C29.0527 15.3724 29.1361 14.8802 29.0969 14.3901C29.0577 13.9 28.897 13.4275 28.6294 13.0154C28.3619 12.6033 27.9959 12.2647 27.5647 12.0303C27.1336 11.7959 26.6508 11.6731 26.1603 11.6731C25.6699 11.6731 25.1871 11.7959 24.756 12.0303C24.3248 12.2647 23.9588 12.6033 23.6913 13.0154C23.4237 13.4275 23.263 13.9 23.2238 14.3901C23.1846 14.8802 23.268 15.3724 23.4666 15.822L23.485 15.8479C23.6261 16.165 23.8225 16.4544 24.065 16.7025C24.7794 17.7453 25.4864 18.862 25.4828 20.0249C25.4791 21.1877 24.7813 22.2601 24.0779 23.2845C23.828 23.537 23.6258 23.8328 23.4813 24.1576L23.4684 24.1779C23.2699 24.6275 23.1864 25.1197 23.2256 25.6098C23.2649 26.0999 23.4256 26.5725 23.6931 26.9846C23.9607 27.3967 24.3266 27.7353 24.7578 27.9697C25.189 28.2041 25.6717 28.3268 26.1622 28.3268C26.6527 28.3268 27.1354 28.2041 27.5666 27.9697C27.9977 27.7353 28.3637 27.3967 28.6313 26.9846C28.8988 26.5725 29.0595 26.0999 29.0987 25.6098C29.138 25.1197 29.0545 24.6275 28.8559 24.1779V24.1797Z" fill="url(#paint3_linear_212_424)"/>
  <path d="M43.4919 17.0513C42.9093 17.0513 42.3397 17.2245 41.8552 17.549C41.3708 17.8735 40.9932 18.3347 40.7702 18.8744C40.5472 19.414 40.4889 20.0078 40.6026 20.5807C40.7162 21.1536 40.9968 21.6798 41.4088 22.0928C41.8208 22.5058 42.3457 22.7871 42.9172 22.901C43.4887 23.015 44.081 22.9565 44.6193 22.733C45.1576 22.5095 45.6177 22.1309 45.9414 21.6453C46.2652 21.1596 46.4379 20.5886 46.4379 20.0045C46.4379 19.2213 46.1276 18.4701 45.5751 17.9163C45.0226 17.3624 44.2733 17.0513 43.4919 17.0513Z" fill="url(#paint4_linear_212_424)"/>
  <path d="M65.2296 18.1219H58.0028V10.9824H54.7438V29.0268H58.0028V20.6857H65.2296V29.0268H68.4905V10.9824H65.2296V18.1219Z" fill="#6D6E71"/>
  <path d="M84.8333 22.8158C85.3967 22.214 85.6705 21.3293 85.6545 20.1615C85.6361 18.7489 85.1752 17.6814 84.2717 16.9591C83.3683 16.2368 81.8812 15.875 79.8104 15.8738C78.3374 15.8738 77.1333 16.083 76.1979 16.5013C75.2774 16.9147 74.5517 17.6686 74.1725 18.6055C73.7478 19.59 73.5349 20.9282 73.5336 22.6201C73.5336 24.189 73.7466 25.4706 74.1725 26.4649C74.5638 27.4225 75.2962 28.2 76.2274 28.6466C77.175 29.1105 78.4319 29.3419 79.9982 29.3406C80.5715 29.3406 81.1852 29.3099 81.8395 29.2483C82.4716 29.1914 83.1003 29.1015 83.7231 28.9789C84.2762 28.8736 84.8181 28.716 85.3415 28.5082L85.0285 26.4944C84.2466 26.5818 83.4334 26.6513 82.5889 26.703C81.7443 26.7547 81.0011 26.7811 80.3591 26.7824C79.49 26.7824 78.7941 26.6642 78.2711 26.428C78.0015 26.2987 77.762 26.1138 77.5685 25.8855C77.375 25.6571 77.2317 25.3904 77.148 25.1027C77.0033 24.6528 76.9106 24.1877 76.8718 23.7165H82.0273C83.3321 23.7177 84.2674 23.4175 84.8333 22.8158ZM76.8221 21.7563C76.826 21.0943 76.9145 20.4355 77.0854 19.7961C77.1495 19.5359 77.2674 19.292 77.4314 19.0803C77.5953 18.8685 77.8017 18.6936 78.0373 18.5668C78.4902 18.3404 79.1249 18.2272 79.9412 18.2272C80.8802 18.2272 81.5455 18.3668 81.9371 18.6461C82.3292 18.9249 82.5318 19.4214 82.5502 20.1357C82.5626 20.5336 82.4772 20.9285 82.3016 21.2856C82.1377 21.5994 81.7585 21.7563 81.1674 21.7563H76.8221Z" fill="#6D6E71"/>
  <path d="M95.3063 26.3597C94.8845 26.3882 94.4681 26.252 94.1445 25.9794C93.8756 25.7284 93.7412 25.3482 93.7412 24.8424V10.9824H90.5062V25.4718C90.5062 26.5178 90.813 27.3791 91.4268 28.0559C92.0405 28.7327 93.0096 29.0723 94.3341 29.0748C95.5862 29.0748 96.8517 29.0619 98.1307 29.036C99.4098 29.0102 100.637 28.945 101.813 28.8404L101.657 26.356L95.3063 26.3597Z" fill="#6D6E71"/>
  <path d="M116.512 17.6513C116.158 17.0162 115.589 16.529 114.908 16.2781C114.075 15.9877 113.197 15.8507 112.316 15.8738C111.69 15.8738 110.986 15.8997 110.204 15.9514C109.421 16.0049 108.648 16.0732 107.882 16.1618C107.116 16.2504 106.429 16.3464 105.822 16.4756L106.105 18.6425C107.113 18.5539 108.117 18.4838 109.117 18.4321C110.118 18.3804 110.948 18.3546 111.609 18.3546C112.496 18.3546 113.096 18.5072 113.408 18.8123C113.719 19.1175 113.876 19.6097 113.879 20.289V21.1251H108.948C107.782 21.1251 106.861 21.4087 106.186 21.976C105.511 22.5433 105.177 23.332 105.183 24.3423V25.7026C105.159 26.4022 105.343 27.093 105.713 27.6869C106.062 28.2209 106.561 28.6396 107.147 28.8903C107.799 29.1689 108.501 29.3073 109.21 29.2964C109.907 29.3045 110.6 29.1889 111.257 28.9549C111.842 28.7461 112.395 28.456 112.899 28.0929C113.337 27.7804 113.744 27.4255 114.113 27.0335L114.218 26.9172L114.556 29.0343H117.061V20.3185C117.061 19.1852 116.878 18.2961 116.512 17.6513ZM113.343 25.758C112.811 26.1083 112.237 26.3892 111.634 26.5942C111.131 26.7734 110.603 26.8706 110.069 26.8821C109.479 26.8821 109.044 26.7474 108.766 26.4779C108.487 26.2084 108.348 25.8115 108.348 25.2873V24.5823C108.325 24.1952 108.446 23.8134 108.687 23.5099C108.914 23.2478 109.287 23.1081 109.808 23.0909H113.879V25.3723C113.706 25.5088 113.529 25.638 113.343 25.758Z" fill="#6D6E71"/>
  <defs>
    <linearGradient id="paint0_linear_212_424" x1="4.60494" y1="19.7184" x2="52.9082" y2="20.7653" gradientUnits="userSpaceOnUse">
      <stop stop-color="#12C781"/>
      <stop offset="0.5" stop-color="#63E9DA"/>
      <stop offset="1" stop-color="#09A9CB"/>
    </linearGradient>
    <linearGradient id="paint1_linear_212_424" x1="4.60124" y1="19.9067" x2="52.9045" y2="20.9536" gradientUnits="userSpaceOnUse">
      <stop stop-color="#12C781"/>
      <stop offset="0.5" stop-color="#63E9DA"/>
      <stop offset="1" stop-color="#09A9CB"/>
    </linearGradient>
    <linearGradient id="paint2_linear_212_424" x1="4.61413" y1="19.342" x2="52.9155" y2="20.3889" gradientUnits="userSpaceOnUse">
      <stop stop-color="#12C781"/>
      <stop offset="0.5" stop-color="#63E9DA"/>
      <stop offset="1" stop-color="#09A9CB"/>
    </linearGradient>
    <linearGradient id="paint3_linear_212_424" x1="4.61046" y1="19.5302" x2="52.9118" y2="20.579" gradientUnits="userSpaceOnUse">
      <stop stop-color="#12C781"/>
      <stop offset="0.5" stop-color="#63E9DA"/>
      <stop offset="1" stop-color="#09A9CB"/>
    </linearGradient>
    <linearGradient id="paint4_linear_212_424" x1="4.61783" y1="19.1536" x2="52.9211" y2="20.2005" gradientUnits="userSpaceOnUse">
      <stop stop-color="#12C781"/>
      <stop offset="0.5" stop-color="#63E9DA"/>
      <stop offset="1" stop-color="#09A9CB"/>
    </linearGradient>
  </defs>
</svg>
