<svg width="120" height="80" viewBox="0 0 120 80" xmlns="http://www.w3.org/2000/svg" style="image-rendering:pixelated;">
  <!-- background -->
  <rect width="120" height="80" fill="#0a0614"/>
  <!-- film strip -->
  <!-- strip body -->
  <rect x="6" y="14" width="108" height="44" fill="#1a0824" stroke="#ff3c6f" stroke-width="1"/>
  <!-- film holes top -->
  <rect x="8" y="10" width="8" height="6" fill="#0a0414" stroke="#ff3c6f" stroke-width="0.5"/>
  <rect x="20" y="10" width="8" height="6" fill="#0a0414" stroke="#ff3c6f" stroke-width="0.5"/>
  <rect x="32" y="10" width="8" height="6" fill="#0a0414" stroke="#ff3c6f" stroke-width="0.5"/>
  <rect x="44" y="10" width="8" height="6" fill="#0a0414" stroke="#ff3c6f" stroke-width="0.5"/>
  <rect x="56" y="10" width="8" height="6" fill="#0a0414" stroke="#ff3c6f" stroke-width="0.5"/>
  <rect x="68" y="10" width="8" height="6" fill="#0a0414" stroke="#ff3c6f" stroke-width="0.5"/>
  <rect x="80" y="10" width="8" height="6" fill="#0a0414" stroke="#ff3c6f" stroke-width="0.5"/>
  <rect x="92" y="10" width="8" height="6" fill="#0a0414" stroke="#ff3c6f" stroke-width="0.5"/>
  <rect x="104" y="10" width="8" height="6" fill="#0a0414" stroke="#ff3c6f" stroke-width="0.5"/>
  <!-- film holes bottom -->
  <rect x="8" y="56" width="8" height="6" fill="#0a0414" stroke="#ff3c6f" stroke-width="0.5"/>
  <rect x="20" y="56" width="8" height="6" fill="#0a0414" stroke="#ff3c6f" stroke-width="0.5"/>
  <rect x="32" y="56" width="8" height="6" fill="#0a0414" stroke="#ff3c6f" stroke-width="0.5"/>
  <rect x="44" y="56" width="8" height="6" fill="#0a0414" stroke="#ff3c6f" stroke-width="0.5"/>
  <rect x="56" y="56" width="8" height="6" fill="#0a0414" stroke="#ff3c6f" stroke-width="0.5"/>
  <rect x="68" y="56" width="8" height="6" fill="#0a0414" stroke="#ff3c6f" stroke-width="0.5"/>
  <rect x="80" y="56" width="8" height="6" fill="#0a0414" stroke="#ff3c6f" stroke-width="0.5"/>
  <rect x="92" y="56" width="8" height="6" fill="#0a0414" stroke="#ff3c6f" stroke-width="0.5"/>
  <rect x="104" y="56" width="8" height="6" fill="#0a0414" stroke="#ff3c6f" stroke-width="0.5"/>
  <!-- frame dividers -->
  <line x1="44" y1="16" x2="44" y2="56" stroke="#ff3c6f" stroke-width="0.5" opacity="0.5"/>
  <line x1="78" y1="16" x2="78" y2="56" stroke="#ff3c6f" stroke-width="0.5" opacity="0.5"/>
  <!-- frame 1: pixel Max character -->
  <rect x="18" y="22" width="18" height="14" fill="#1a3a06"/>
  <rect x="21" y="19" width="12" height="10" fill="#2a5a0a"/>
  <rect x="23" y="21" width="3" height="3" fill="#C6F135"/>
  <rect x="28" y="21" width="3" height="3" fill="#C6F135"/>
  <!-- frame 2: Max waving -->
  <rect x="52" y="22" width="18" height="14" fill="#1a3a06"/>
  <rect x="55" y="19" width="12" height="10" fill="#2a5a0a"/>
  <rect x="57" y="21" width="3" height="3" fill="#C6F135"/>
  <rect x="62" y="21" width="3" height="3" fill="#C6F135"/>
  <rect x="68" y="22" width="4" height="4" fill="#2a5a0a"/>
  <!-- frame 3: play button -->
  <rect x="84" y="20" width="18" height="18" fill="#0a1406"/>
  <!-- triangle play -->
  <rect x="89" y="23" width="4" height="12" fill="#C6F135"/>
  <rect x="93" y="25" width="4" height="8" fill="#C6F135"/>
  <rect x="97" y="27" width="2" height="4" fill="#C6F135"/>
  <!-- price tag -->
  <text x="60" y="74" font-family="'Press Start 2P',monospace" font-size="5" fill="#ffe94d" text-anchor="middle">$0.15</text>
</svg>
