<svg xmlns="http://www.w3.org/2000/svg" viewBox="0 0 120 80" shape-rendering="crispEdges">
  <rect width="120" height="80" fill="#0d0d0d"/>

  <rect x="3" y="13" width="28" height="22" fill="#1a0505" stroke="#ff1744" stroke-width="1"/>
  <text x="17" y="22" font-family="monospace" font-size="4" fill="#ff1744" text-anchor="middle">RUN</text>
  <text x="17" y="29" font-family="monospace" font-size="4" fill="#ff1744" text-anchor="middle">BOOK</text>
  <line x1="3" y1="13" x2="31" y2="35" stroke="#ff4081" stroke-width="1.5"/>
  <line x1="31" y1="13" x2="3" y2="35" stroke="#ff4081" stroke-width="1.5"/>

  <text x="37" y="26" font-family="monospace" font-size="7" fill="#ffb300" text-anchor="middle">&#x2192;</text>

  <rect x="51" y="13" width="12" height="11" fill="#ffb300"/>
  <rect x="53" y="16" width="2" height="2" fill="#0d0d0d"/>
  <rect x="58" y="16" width="2" height="2" fill="#0d0d0d"/>
  <rect x="55" y="21" width="4" height="1" fill="#0d0d0d"/>
  <rect x="48" y="24" width="18" height="11" fill="#00e5ff"/>
  <rect x="43" y="24" width="5" height="3" fill="#00e5ff"/>
  <rect x="66" y="24" width="5" height="3" fill="#00e5ff"/>
  <rect x="52" y="35" width="4" height="6" fill="#ffb300"/>
  <rect x="59" y="35" width="4" height="6" fill="#ffb300"/>
  <rect x="50" y="25" width="14" height="9" fill="#0d1a0d"/>
  <rect x="52" y="27" width="7" height="1" fill="#b2ff59"/>
  <rect x="52" y="29" width="5" height="1" fill="#b2ff59"/>
  <rect x="52" y="31" width="8" height="1" fill="#b2ff59"/>

  <text x="80" y="26" font-family="monospace" font-size="7" fill="#ffb300" text-anchor="middle">&#x2192;</text>

  <rect x="88" y="13" width="28" height="22" fill="#003322" stroke="#00e5ff" stroke-width="1"/>
  <text x="102" y="22" font-family="monospace" font-size="3.5" fill="#00e5ff" text-anchor="middle">APPROVE</text>
  <text x="102" y="28" font-family="monospace" font-size="3.5" fill="#00e5ff" text-anchor="middle">ON PHONE</text>
  <rect x="98" y="30" width="8" height="3" fill="#b2ff59"/>
  <text x="102" y="33" font-family="monospace" font-size="3" fill="#0d0d0d" text-anchor="middle">DONE</text>

  <rect x="42" y="2" width="30" height="8" fill="#ff4081"/>
  <text x="57" y="8" font-family="monospace" font-size="4" fill="#ffffff" text-anchor="middle">1-CLICK</text>

  <text x="60" y="50" font-family="monospace" font-size="3.5" fill="#ffb300" text-anchor="middle">CVA ONBOARDING</text>

  <rect x="10" y="54" width="100" height="11" fill="#0d1a00" stroke="#b2ff59" stroke-width="1"/>
  <text x="60" y="62" font-family="monospace" font-size="3.5" fill="#b2ff59" text-anchor="middle">DELETED THE RUNBOOK</text>

  <text x="60" y="75" font-family="monospace" font-size="3" fill="#444444" text-anchor="middle">HeLa Chain · 2026-04-30</text>
</svg>